<?xml version="1.0" standalone="no"?>
<!DOCTYPE svg PUBLIC "-//W3C//DTD SVG 20010904//EN"
 "http://www.w3.org/TR/2001/REC-SVG-20010904/DTD/svg10.dtd">
<svg version="1.0" xmlns="http://www.w3.org/2000/svg"
 width="558.000000pt" height="121.000000pt" viewBox="0 0 558.000000 121.000000"
 preserveAspectRatio="xMidYMid meet">

<g transform="translate(0.000000,121.000000) scale(0.100000,-0.100000)"
fill="#000000" stroke="none">
<path d="M439 1197 c-25 -7 -86 -39 -135 -70 -143 -91 -254 -235 -254 -330 0
-21 -7 -54 -15 -74 -9 -22 -13 -49 -9 -69 3 -18 2 -39 -2 -46 -36 -58 -1 -199
63 -256 21 -19 37 -40 35 -48 -4 -17 45 -88 90 -131 18 -18 60 -44 93 -58 33
-15 71 -32 85 -39 14 -7 47 -18 73 -25 27 -6 65 -20 85 -31 87 -47 338 1 450
86 38 30 122 133 122 151 0 7 -17 21 -37 32 -55 28 -113 85 -113 110 0 20 -36
44 -52 35 -11 -7 -73 60 -91 98 -12 26 -17 62 -17 129 0 80 3 98 25 134 13 23
36 50 50 59 14 9 25 23 25 32 0 8 19 32 41 53 36 33 42 45 47 89 6 67 -3 98
-34 118 -20 13 -30 15 -49 6 -15 -7 -26 -8 -30 -2 -15 24 -73 42 -144 46 -42
2 -116 6 -166 8 -57 4 -107 1 -136 -7z"/>
<path d="M1550 590 l0 -570 124 0 125 0 3 268 c3 238 5 271 21 295 60 91 203
88 254 -5 15 -29 18 -68 21 -295 l4 -263 125 0 124 0 -3 323 -3 322 -30 60
c-34 68 -92 118 -158 136 -59 16 -204 7 -245 -15 -18 -9 -51 -33 -73 -53 l-39
-35 0 201 0 201 -125 0 -125 0 0 -570z"/>
<path d="M1112 1071 c-14 -8 -56 -125 -68 -185 -8 -46 11 -94 41 -102 17 -4
39 7 84 41 33 26 61 51 61 56 0 5 11 14 25 19 21 8 25 16 25 49 0 57 -6 68
-65 101 -53 31 -80 36 -103 21z"/>
<path d="M1336 921 c-10 -16 5 -41 25 -41 11 0 22 7 26 16 9 24 -38 47 -51 25z"/>
<path d="M2815 856 c-207 -66 -333 -276 -296 -497 37 -228 202 -359 450 -359
107 0 180 17 249 57 54 31 112 82 111 97 -1 12 -133 126 -147 126 -5 0 -17 -9
-26 -19 -10 -11 -40 -29 -68 -41 -93 -40 -217 -23 -269 36 -16 19 -49 78 -49
89 0 3 135 5 300 5 l300 0 0 83 c0 212 -106 371 -279 421 -66 19 -219 20 -276
2z m233 -214 c31 -22 72 -94 72 -125 0 -15 -18 -17 -175 -17 -196 0 -192 -2
-155 69 23 46 71 89 108 97 15 3 31 7 37 8 22 6 85 -12 113 -32z"/>
<path d="M5111 858 c-127 -14 -217 -82 -248 -187 -32 -111 7 -217 100 -271 29
-17 104 -46 167 -66 136 -42 160 -56 160 -89 0 -79 -189 -70 -324 15 -26 17
-49 30 -51 28 -1 -2 -26 -39 -55 -82 l-53 -79 24 -20 c33 -28 139 -76 201 -93
71 -18 241 -18 305 1 76 23 131 67 160 131 21 47 25 67 22 133 -4 67 -8 83
-32 115 -41 53 -96 84 -237 133 -133 47 -160 63 -160 98 0 56 122 59 236 6 36
-17 71 -31 78 -31 6 0 18 12 26 28 9 15 31 53 48 84 l33 57 -43 22 c-112 57
-236 81 -357 67z"/>
<path d="M3440 839 c0 -10 157 -510 231 -736 l31 -93 116 0 117 0 81 242 81
243 80 -240 80 -240 118 0 118 0 134 415 c73 228 133 416 133 418 0 1 -58 2
-128 2 l-128 0 -54 -192 c-29 -106 -60 -215 -67 -242 l-15 -50 -79 242 -80
242 -112 0 -113 0 -74 -235 c-41 -129 -78 -235 -81 -235 -3 0 -34 106 -69 235
l-63 235 -129 0 c-85 0 -128 -4 -128 -11z"/>
<path d="M1290 786 c0 -21 5 -26 25 -26 18 0 25 5 25 20 0 11 -4 20 -9 20 -5
0 -16 3 -25 6 -12 5 -16 0 -16 -20z"/>
<path d="M1030 660 c0 -13 7 -20 19 -20 14 0 18 5 14 20 -3 11 -12 20 -19 20
-8 0 -14 -9 -14 -20z"/>
<path d="M1310 622 c0 -5 9 -17 20 -27 20 -18 20 -17 20 8 0 20 -5 27 -20 27
-11 0 -20 -4 -20 -8z"/>
<path d="M1108 554 c-16 -8 -28 -19 -28 -23 0 -5 -9 -7 -21 -4 -12 4 -25 0
-29 -7 -7 -11 -11 -11 -24 -1 -17 15 -56 6 -56 -13 0 -16 32 -46 49 -46 6 0
25 10 41 22 29 21 30 21 50 3 19 -17 89 -28 107 -16 5 3 17 22 27 41 16 33 16
35 -1 47 -23 17 -82 16 -115 -3z"/>
<path d="M1356 515 c-5 -15 28 -45 51 -45 24 0 14 40 -13 50 -32 13 -31 13
-38 -5z"/>
<path d="M1322 434 c2 -11 11 -20 22 -22 13 -3 17 1 14 14 -2 11 -11 20 -22
22 -13 3 -17 -1 -14 -14z"/>
<path d="M1143 392 c-3 -14 -12 -17 -41 -14 -30 3 -35 2 -24 -9 6 -7 12 -21
12 -32 0 -17 1 -17 29 3 18 12 32 16 36 10 9 -15 51 -12 65 5 10 13 10 19 -5
35 -23 25 -65 26 -72 2z"/>
</g>
</svg>
